<svg title="Tiny Weather Forecast Germany app icon" xmlns="http://www.w3.org/2000/svg" width="100" height="100" viewBox="0 0 238.37 237.426"><path fill="#fbfbfc" d="M92.201 142.035c-3.04-.586-1.712-1.223 9.356-6.847 29.683-15.083 30.129-21.85 2.213-44.148-17.48-13.963-36.478-15.755-8.837-19.806 5.9-.864 7.55-.049 5.646 1.918-3.332 3.443-1.024 6.344 14.689 19.055 26.228 21.217 25.773 28.05-2.794 41.984-6.806 3.32-12.91 6.742-12.475 7.259 2.53 3.013-3.859 1.343-7.798.585zm-38.12-71.978c-14.328-5.797 6.89-35.755 28.394-39.795 5.106-.959 8.144.154 9.897 3.027 3.548 5.82 1.272 9.293-8.833 13.482-8.461 3.507-11.953 6.344-17.703 14.608-7.27 10.449-8.22 10.109-11.756 8.678z"></path><path fill="#a5c6f7" d="M99.784 142.517c-.905-1.465.47-2.365 12.78-8.37 28.466-13.885 28.908-20.742 2.704-41.94-15.713-12.71-12.343-14.808-14.182-18.775 0 0 1.76-1.176-6.933-.424-39.089 3.38-54.414 12.789-65.323 25.086-4.04 4.555-4.75 3.012-4.81 2.131-.295-4.446.134-2.801 1.007-8.874 4.839-33.686 37.133-66.37 66.092-73.88 25.615-6.64 33.459-12.159 30.824-1.23-5.645 23.417 19.73 45.605 42.421 34.124 8.12-4.108 13.827-16.135 15.454-14.684 3.117 2.779 8.902 7.985 14.755 14.119 9.78 10.248 16.04 33.271 19.068 46.711 3.21 14.25-3.408 1.45-7.363-2.627-14.27-14.26-43.143-22.61-79.308-22.656-31.113-.04-33.002 2.125-14.597 16.719 31.198 24.737 31.3 32.756.61 47.598-6.935 3.354-11.93 6.431-11.229 6.595 10.85 2.545-1.238 1.562-1.97.377zM60.242 68.575c.788-.693 3.306-3.931 5.594-7.196 5.779-8.244 9.242-11.101 17.703-14.608 10.105-4.189 12.38-7.663 8.833-13.482-7.242-11.876-42.888 12.556-42.888 29.396 0 6.63 6.11 9.976 10.758 5.89z"></path><path fill="#f3dd88" d="M112.407 143.544c3.143-.15 8.466.603 11.608.752 3.142.15.571.272-5.713.272s-9.037-.875-5.895-1.024zm-20.109-.232c-1.517-.33-7.545-1.56-13.396-2.734-68.796-13.798-81.967-49.534-4.028-65.384 12.214-2.484 14.27-2.61 14.277-.248.01 3.472 2.493 6.06 16.543 17.244 26.054 20.74 25.487 28.839-3.953 43.291-12.079 5.93-12.586 6.016-7.276 6.65 18.124 2.165 11.116 1.862 5.906 1.855-3.408.217-6.556-.344-8.073-.674zM177.64 40.364c7.053-7.197-.112-6.523 3.109-3.806-1.23-1.082-4.568 4.55-3.109 3.806z"></path><path fill="#efbb24" d="M109.594 193.697c-39.177-1.117-60.725-18.303-77.027-43.367-7.184-11.046-13.952-45.042-6.145-35.25 14.734 18.478 36.502 21.199 47.436 23.504 13.322 2.808 20.047 3.706 26.199 4.415 7.828.902 33.728.565 44.787-1.018 31.426-4.497 51.53-10.743 62.699-22.52 5.258-5.543 8.983-32.322 5.417 4.227-5.213 53.43-45.758 71.652-103.366 70.01zm30.597-140.846c-13.126-4.102-20.319-18.915-19.288-29.878 1.106-11.772-.589-12.094 9.32-10.027 13.293 2.773 27.888 7.354 42.165 17.279 10.777 7.492 9.965 4.367 4.446 10.951-9.541 11.382-25.428 15.18-36.643 11.675z"></path><path fill="#4e86e6" d="M103.057 143.307c-5.505-.533-5.482-2.12 8.94-8.904 30.287-14.245 29.343-21.42-1.165-45.502C94.417 75.944 92.847 68.96 123.96 69.466c36.378.592 68.656 10.316 83.222 25.085 2.771 2.809 3.248 5.315 5.833 7.683 2.655 2.432 1.636-5.035 1.609-.296-.03 4.923-2.256 4.16-4.475.807-9.972-15.07-68.1-36.083-86.938-29.516-6.564 2.288-4.742 4.48 16.367 19.688 23.37 16.838 23.974 25.059 2.952 40.164-8.81 6.33-9.903 9.123-3.74 9.548 1.084.075-.512.391-3.546.703-5.733.588-22.47.915-28.968.286z"></path><path fill="#3865cc" d="M135.565 142.08c-2.123-1.346-.178-3.866 6.965-8.999 21.022-15.105 20.418-23.326-2.952-40.164-21.11-15.209-24.987-20.043-18.423-22.331 18.814-6.559 77.13 9.36 89.538 27.827 6.211 10.153 3.184 2.608 4.67 4.684 7.657 11.274-15.38 26.629-40.663 33.898-15.684 4.51-36.04 7.046-39.135 5.085z"></path><path fill="#2c9f5f" d="M100.966 215.33c-52.601-6.1-81.359-24.804-58.92-46.025 4.415-4.177 3.506-3.702 8.698 1.676 15.179 15.724 35.097 22.218 67.952 22.154 33.032-.064 51.757-7.502 68.873-22.436 5.412-4.722 3.943-5.89 8.455-1.272 17.755 18.17-2.54 36.803-46.99 44.44-7.171 1.232-41.143 2.265-48.068 1.462z"></path><path fill="#293235" d="M106.482 231.926c-2.87-.19 0 0-9.717-1.935-47.844-9.188-81.139-45.249-90.648-98.18-2.382-13.259-1.018-26.753 4.716-46.635C26.013 32.54 85.183-3.944 137.752 6.92c52.563 10.863 84.497 44.392 94.311 99.024 2.106 11.717 1.818 16.958-1.966 35.785-8.41 41.85-41.45 76.117-82.55 85.85-19.944 4.722-22.807 5.563-41.065 4.347zm42.552-18.06c44.766-7.69 65.271-27.786 46.209-45.285-2.696-2.475-3.995-1.377 1.489-8.763 37.486-50.495 9.98-123.4-49.42-141.454C62.001-7.562-11.723 88.507 41.53 159.94c6.436 8.634 4.547 5.018 1.054 9.025-17.145 19.67 5.781 40.264 58.382 46.364 6.925.803 40.897-.23 48.068-1.462z"></path></svg>